# xmcd
# Copyright (C) 1995-1998 Ti Kan
#
# Track frame offsets:
#       150
#       16971
#       32652
#       49137
#       66804
#       93734
#
# Disc length: 2422 seconds
#
# Revision: 1
# Processed by: cddbd v1.5.2PL0 Copyright (c) Steve Scherf et al.
# Submitted via: CD-Import v1.0
#
DISCID=49097406
DTITLE=Cédric Luscher - Marcher Dans Vos Rues (Partie 1)
DYEAR=10
DGENRE=
TTITLE0=Plutôt Piano
TTITLE1=Est-Ce Qu'on Y Danse ? 
TTITLE2=Marcher Dans Vos Rues
TTITLE3=Toujours Pareil
TTITLE4=La Valaisanne
TTITLE5=Data Track
EXTD=
EXTT0=
EXTT1=
EXTT2=
EXTT3=
EXTT4=
EXTT5=
PLAYORDER=
